<?xml version="1.0" encoding="iso-8859-1"?>
<!-- Generator: Adobe Illustrator 19.0.0, SVG Export Plug-In . SVG Version: 6.00 Build 0)  -->
<svg version="1.1" id="Layer_1" xmlns="http://www.w3.org/2000/svg" xmlns:xlink="http://www.w3.org/1999/xlink" x="0px" y="0px"
	 viewBox="0 0 458 458" style="enable-background:new 0 0 458 458;" xml:space="preserve">
<g>
	<polygon points="316.167,70.5 201.167,70.5 201.167,162.5 353.746,162.5 	"/>
	<polygon points="171.167,70.5 101.167,70.5 24.877,162.5 171.167,162.5 	"/>
	<path d="M366,192.5H1.389v-1.675L0,192.5v140h36.635c6.887-31.412,34.916-55,68.365-55s61.477,23.588,68.365,55h111.271
		c6.887-31.412,34.916-55,68.365-55s61.477,23.588,68.365,55H458v-110L366,192.5z"/>
	<path d="M353,307.5c-22.056,0-40,17.944-40,40s17.944,40,40,40s40-17.944,40-40S375.056,307.5,353,307.5z"/>
	<path d="M105,307.5c-22.056,0-40,17.944-40,40s17.944,40,40,40s40-17.944,40-40S127.056,307.5,105,307.5z"/>
</g>
<g>
</g>
<g>
</g>
<g>
</g>
<g>
</g>
<g>
</g>
<g>
</g>
<g>
</g>
<g>
</g>
<g>
</g>
<g>
</g>
<g>
</g>
<g>
</g>
<g>
</g>
<g>
</g>
<g>
</g>
</svg>
