<?xml version='1.0' encoding='iso-8859-1'?>
<!DOCTYPE svg PUBLIC '-//W3C//DTD SVG 1.1//EN' 'http://www.w3.org/Graphics/SVG/1.1/DTD/svg11.dtd'>
<svg version="1.1" xmlns="http://www.w3.org/2000/svg" viewBox="0 0 512 512" xmlns:xlink="http://www.w3.org/1999/xlink" enable-background="new 0 0 512 512">
  <g>
    <path d="m180.688,260.688c-6.25,6.25-6.25,16.375 0,22.625l48,48c3.125,3.125 7.218,4.687 11.312,4.687 4.094,0 8.188-1.563 11.313-4.688l80-80c6.25-6.25 6.25-16.375 0-22.625s-16.375-6.25-22.625,0l-68.688,68.688-36.688-36.688c-6.249-6.249-16.374-6.249-22.624,0.001z"/>
    <circle cx="256.002" cy="64" r="16"/>
    <path d="M416,32H311.097C299.994,12.965,279.581,0,256,0s-43.994,12.965-55.097,32H96c-26.469,0-48,21.531-48,48v384   c0,26.469,21.531,48,48,48h320c26.469,0,48-21.531,48-48V80C464,53.531,442.469,32,416,32z M224,64c0-17.648,14.352-32,32-32   s32,14.352,32,32v64h-64V64z M288,160c17.648,0,32-14.352,32-32h48v288H144V128h48c0,17.648,14.352,32,32,32H288z M432,464   c0,8.82-7.18,16-16,16H96c-8.82,0-16-7.18-16-16V80c0-8.82,7.18-16,16-16h96v32h-64c-8.836,0-16,7.164-16,16v320   c0,8.836,7.164,16,16,16h256c8.836,0,16-7.164,16-16V112c0-8.836-7.164-16-16-16h-64V64h96c8.82,0,16,7.18,16,16V464z"/>
  </g>
</svg>
